<?xml version="1.0" encoding="utf-8"?>
<!-- Generator: Adobe Illustrator 20.1.0, SVG Export Plug-In . SVG Version: 6.00 Build 0)  -->
<svg version="1.1" xmlns="http://www.w3.org/2000/svg" xmlns:xlink="http://www.w3.org/1999/xlink" x="0px" y="0px"
	 viewBox="0 0 498.8 499.4" style="enable-background:new 0 0 498.8 499.4;" xml:space="preserve">
<style type="text/css">
	.st0{fill:#D11E1E;}
	.st1{fill:none;stroke:#000000;stroke-width:3;stroke-miterlimit:10;}
	.st2{fill:none;stroke:#000000;stroke-miterlimit:10;}
	.st3{fill:#3967B1;}
	.st4{fill:none;stroke:#000000;stroke-width:2;stroke-miterlimit:10;}
	.st5{fill:none;stroke:#000000;stroke-width:0.5;stroke-linecap:round;stroke-linejoin:round;}
	.st6{fill:none;stroke:#000000;stroke-width:2;stroke-linecap:round;stroke-linejoin:round;}
	.st7{fill:none;stroke:#000000;stroke-linecap:round;stroke-linejoin:round;}
	.st8{fill:none;stroke:#FFFFFF;stroke-width:2;stroke-linecap:round;stroke-linejoin:round;}
	.st9{fill:#436EAF;stroke:#FFFFFF;stroke-width:2;stroke-linecap:round;stroke-linejoin:round;}
</style>
<g id="Main_Layer">
	<g id="XMLID_1_">
		<g>
			<polygon class="st0" points="124.6,124.8 124.6,125 0,249.8 -0.4,0.2 0,0.2 			"/>
		</g>
		<g>
			<line class="st1" x1="-0.4" y1="0.2" x2="0" y2="249.8"/>
			<line class="st1" x1="0" y1="0.2" x2="124.6" y2="124.8"/>
			<line class="st1" x1="124.6" y1="125" x2="0" y2="249.8"/>
		</g>
	</g>
	<g id="XMLID_5_">
		<g>
			<polygon class="st0" points="124.8,374.6 124.8,374.7 0.2,499.5 -0.2,249.9 0.2,249.9 			"/>
		</g>
		<g>
			<line class="st1" x1="-0.2" y1="249.9" x2="0.2" y2="499.5"/>
			<line class="st1" x1="0.2" y1="249.9" x2="124.8" y2="374.6"/>
			<line class="st2" x1="124.8" y1="374.7" x2="0.2" y2="499.5"/>
		</g>
	</g>
	<g>
		<g id="XMLID_3_">
			<g>
				<polygon class="st3" points="374.7,374.9 374.5,374.9 249.7,499.6 499.3,500 499.3,499.6 				"/>
			</g>
			<g>
				<line class="st4" x1="499.3" y1="500" x2="249.7" y2="499.6"/>
				<line class="st4" x1="499.3" y1="499.6" x2="374.7" y2="374.9"/>
				<line class="st4" x1="374.5" y1="374.9" x2="249.7" y2="499.6"/>
			</g>
		</g>
	</g>
	<g id="XMLID_4_">
		<g>
			<polygon class="st3" points="249.6,499.4 249.6,499.8 0,499.4 124.8,374.7 125,374.7 			"/>
		</g>
		<g>
			<line class="st1" x1="249.6" y1="499.8" x2="0" y2="499.4"/>
			<line class="st1" x1="249.6" y1="499.4" x2="125" y2="374.7"/>
			<line class="st2" x1="124.8" y1="374.7" x2="0" y2="499.4"/>
		</g>
	</g>
	<line class="st1" x1="-1.4" y1="0.2" x2="499.4" y2="0.2"/>
	<line class="st1" x1="498.8" y1="0" x2="499.3" y2="500"/>
	<line class="st2" x1="124.2" y1="374.8" x2="497.4" y2="1.4"/>
</g>
<g id="Black_Arrow_Down">
	<g id="XMLID_8_">
		<g>
			<polygon points="499.3,499.6 374.7,374.9 374.5,374.9 249.8,499.6 249.6,499.4 125,374.7 124.6,374.4 497.4,1.4 498.8,1.4 			"/>
		</g>
		<g>
			<line class="st5" x1="499.3" y1="499.6" x2="374.7" y2="374.9"/>
			<polyline class="st5" points="374.5,374.9 249.8,499.6 249.8,499.6 			"/>
			<line class="st5" x1="249.6" y1="499.4" x2="125" y2="374.7"/>
			<polyline class="st1" points="498.8,0 498.8,1.4 499.3,499.6 499.3,500 			"/>
			<polyline class="st2" points="124.2,374.8 124.6,374.4 497.4,1.4 			"/>
		</g>
	</g>
</g>
<g id="Black_Arrow_Up">
	<line class="st5" x1="499.3" y1="499.6" x2="374.7" y2="374.9"/>
	<line class="st5" x1="374.5" y1="374.9" x2="249.7" y2="499.6"/>
	<line class="st5" x1="249.6" y1="499.4" x2="125" y2="374.7"/>
	<line class="st4" x1="498.8" y1="0" x2="499.3" y2="500"/>
	<g id="XMLID_2_">
		<g>
			<polygon points="497.4,0.2 497.4,1.4 124.7,374.4 0.2,249.9 0,249.8 124.6,125 124.6,124.8 0,0.2 			"/>
		</g>
		<g>
			<polyline class="st6" points="0,0.2 0,0.2 124.6,124.8 			"/>
			<polyline class="st6" points="124.6,125 0,249.8 0,249.8 			"/>
			<polyline class="st6" points="0.2,249.9 124.7,374.4 124.8,374.6 			"/>
			<polyline class="st4" points="-1.4,0.2 0,0.2 497.4,0.2 499.4,0.2 			"/>
			<polyline class="st4" points="124.2,374.8 124.7,374.4 497.4,1.4 			"/>
		</g>
	</g>
</g>
<g id="Strong_Outline">
	<line class="st6" x1="-0.4" y1="0.2" x2="0" y2="249.8"/>
	<line class="st7" x1="0" y1="0.2" x2="124.6" y2="124.8"/>
	<line class="st7" x1="124.6" y1="125" x2="0" y2="249.8"/>
	<line class="st6" x1="-0.2" y1="249.9" x2="0.2" y2="499.5"/>
	<line class="st7" x1="0.2" y1="249.9" x2="124.8" y2="374.6"/>
	<line class="st6" x1="499.3" y1="500" x2="249.7" y2="499.6"/>
	<line class="st7" x1="499.3" y1="499.6" x2="374.7" y2="374.9"/>
	<line class="st7" x1="374.5" y1="374.9" x2="249.7" y2="499.6"/>
	<line class="st6" x1="249.6" y1="499.8" x2="0" y2="499.4"/>
	<line class="st7" x1="249.6" y1="499.4" x2="125" y2="374.7"/>
</g>
<g id="White_Outline">
	<line class="st8" x1="-9.4" y1="-9.2" x2="124.6" y2="124.8"/>
	<line class="st8" x1="124.6" y1="125" x2="0" y2="249.8"/>
	<line class="st8" x1="0.2" y1="249.9" x2="124.8" y2="374.6"/>
	<line class="st8" x1="509.3" y1="509.5" x2="374.7" y2="374.9"/>
	<line class="st8" x1="374.5" y1="374.9" x2="249.7" y2="499.6"/>
	<line class="st8" x1="249.6" y1="499.4" x2="125" y2="374.7"/>
</g>
<g id="White_Line">
	<line class="st7" x1="124.2" y1="374.8" x2="497.4" y2="1.4"/>
	<line class="st9" x1="125" y1="374.7" x2="499.4" y2="0.2"/>
</g>
</svg>
